# xmcd
#
# Track frame offsets:
#	150
#	12622
#	23617
#	34472
#	43105
#	59315
#	68537
#	77895
#	90350
#	103242
#	116652
#	129295
#	142487
#	155635
#	168085
#	182740
#	195730
#	207422
#	221117
#	233187
#	244210
#	254900
#	266010
#	276795
#	289937
#	304385
#	318682
#	333002
#
# Disc length: 4616 seconds
#
# Revision: 0
# Processed by: cddbd v1.5PL3 Copyright (c) Steve Scherf et al.
# Submitted via: audiograbber 1.80
#
DISCID=b512061c
DTITLE=bob luman - Luman, 1968-1977 cd4
DYEAR=1900
DGENRE=
TTITLE0=Country Love 
TTITLE1=The Closest Thing To Heaven That I've Found 
TTITLE2=Let Me Make The Bright Lights Shine For You 
TTITLE3=Six Days On The Road 
TTITLE4=The Long Black Veil 
TTITLE5=Mama Tried 
TTITLE6=Bye Bye Love 
TTITLE7=You Left Your Door Wide Open 
TTITLE8=Johnny B. Goode 
TTITLE9=Mystery Train 
TTITLE10=Someone To Finish What You Started 
TTITLE11=Red Cadillac And A Black Moustache 
TTITLE12=Gone 
TTITLE13=Proud Of You Baby 
TTITLE14=Nothing Ever Hurt Her 
TTITLE15=Oh How Happy 
TTITLE16=The Girl In My Life 
TTITLE17=Right Here In My Arms 
TTITLE18=My Woman's Ways 
TTITLE19=Snap Your Fingers 
TTITLE20=It's Only Make Believe 
TTITLE21=The Chokin' Kind 
TTITLE22=Long Tall Texan 
TTITLE23=Green Acres/The Man From Bowling Green 
TTITLE24=The Man From Bowling Green 
TTITLE25=How Do You Start Over 
TTITLE26=Shame On Me 
TTITLE27=A Satisfied Mind 
EXTD=
EXTT0=
EXTT1=
EXTT2=
EXTT3=
EXTT4=
EXTT5=
EXTT6=
EXTT7=
EXTT8=
EXTT9=
EXTT10=
EXTT11=
EXTT12=
EXTT13=
EXTT14=
EXTT15=
EXTT16=
EXTT17=
EXTT18=
EXTT19=
EXTT20=
EXTT21=
EXTT22=
EXTT23=
EXTT24=
EXTT25=
EXTT26=
EXTT27=
PLAYORDER=
